<mxfile host="app.diagrams.net" modified="2021-01-18T13:24:58.651Z" agent="5.0 (Macintosh; Intel Mac OS X 10_15_7) AppleWebKit/537.36 (KHTML, like Gecko) Chrome/87.0.4280.141 Safari/537.36" etag="3P18MV7WY0_4zlDqkFut" version="14.1.9" type="github">
  <diagram id="x7YA_2TcUPR-6d6FDCFS" name="Page-1">
    <mxGraphModel dx="1186" dy="1933" grid="1" gridSize="10" guides="1" tooltips="1" connect="1" arrows="1" fold="1" page="1" pageScale="1" pageWidth="827" pageHeight="1169" math="0" shadow="0">
      <root>
        <mxCell id="0" />
        <mxCell id="1" parent="0" />
        <mxCell id="YVzgmQ1mdvPR-3ZGhLIe-23" value="Rede privada" style="outlineConnect=0;gradientColor=none;html=1;whiteSpace=wrap;fontSize=12;fontStyle=0;shape=mxgraph.aws4.group;grIcon=mxgraph.aws4.group_subnet;strokeColor=#879196;fillColor=#E6F2F8;verticalAlign=top;align=left;spacingLeft=30;fontColor=#879196;dashed=0;labelBackgroundColor=none;" parent="1" vertex="1">
          <mxGeometry x="567" y="120" width="583" height="460" as="geometry" />
        </mxCell>
        <mxCell id="YVzgmQ1mdvPR-3ZGhLIe-21" value="Rede pública" style="outlineConnect=0;gradientColor=none;html=1;whiteSpace=wrap;fontSize=12;fontStyle=0;shape=mxgraph.aws4.group;grIcon=mxgraph.aws4.group_subnet;strokeColor=#879196;fillColor=#E9F3E6;verticalAlign=top;align=left;spacingLeft=30;fontColor=#879196;dashed=0;labelBackgroundColor=none;" parent="1" vertex="1">
          <mxGeometry x="290" y="120" width="260" height="460" as="geometry" />
        </mxCell>
        <mxCell id="YVzgmQ1mdvPR-3ZGhLIe-1" value="" style="strokeColor=#dddddd;shadow=1;strokeWidth=1;rounded=1;absoluteArcSize=1;arcSize=2;" parent="1" vertex="1">
          <mxGeometry x="180" y="44.5" width="100" height="60" as="geometry" />
        </mxCell>
        <mxCell id="YVzgmQ1mdvPR-3ZGhLIe-2" value="Cloud &#xa;CDN" style="dashed=0;connectable=0;html=1;fillColor=#5184F3;strokeColor=none;shape=mxgraph.gcp2.hexIcon;prIcon=cloud_cdn;part=1;labelPosition=right;verticalLabelPosition=middle;align=left;verticalAlign=middle;spacingLeft=5;fontColor=#999999;fontSize=12;" parent="YVzgmQ1mdvPR-3ZGhLIe-1" vertex="1">
          <mxGeometry y="0.5" width="44" height="39" relative="1" as="geometry">
            <mxPoint x="5" y="-19.5" as="offset" />
          </mxGeometry>
        </mxCell>
        <mxCell id="YVzgmQ1mdvPR-3ZGhLIe-3" value="- Caching;&lt;br&gt;- Compression;&lt;br&gt;- WAF;&lt;br&gt;- Firewall" style="text;html=1;strokeColor=none;fillColor=none;align=left;verticalAlign=middle;whiteSpace=wrap;rounded=0;" parent="1" vertex="1">
          <mxGeometry x="186" y="-10" width="94" height="54.5" as="geometry" />
        </mxCell>
        <mxCell id="YVzgmQ1mdvPR-3ZGhLIe-16" style="edgeStyle=orthogonalEdgeStyle;rounded=0;orthogonalLoop=1;jettySize=auto;html=1;entryX=0;entryY=0.5;entryDx=0;entryDy=0;" parent="1" source="YVzgmQ1mdvPR-3ZGhLIe-4" target="YVzgmQ1mdvPR-3ZGhLIe-11" edge="1">
          <mxGeometry relative="1" as="geometry" />
        </mxCell>
        <mxCell id="YVzgmQ1mdvPR-3ZGhLIe-4" value="App" style="outlineConnect=0;dashed=0;verticalLabelPosition=bottom;verticalAlign=top;align=center;html=1;shape=mxgraph.aws3.mobile_client;fillColor=#D2D3D3;gradientColor=none;" parent="1" vertex="1">
          <mxGeometry x="49.75" y="323.5" width="40.5" height="63" as="geometry" />
        </mxCell>
        <mxCell id="YVzgmQ1mdvPR-3ZGhLIe-7" value="APP" style="html=1;strokeColor=none;fillColor=#0079D6;labelPosition=center;verticalLabelPosition=middle;verticalAlign=top;align=center;fontSize=12;outlineConnect=0;spacingTop=-6;fontColor=#FFFFFF;shape=mxgraph.sitemap.about_us;" parent="1" vertex="1">
          <mxGeometry x="20" y="150" width="100" height="60" as="geometry" />
        </mxCell>
        <mxCell id="YVzgmQ1mdvPR-3ZGhLIe-8" value="Compressão de imagem via client side" style="text;html=1;strokeColor=none;fillColor=none;align=center;verticalAlign=middle;whiteSpace=wrap;rounded=0;" parent="1" vertex="1">
          <mxGeometry x="25" y="220" width="90" height="40" as="geometry" />
        </mxCell>
        <mxCell id="YVzgmQ1mdvPR-3ZGhLIe-9" value="BFF - Backend For Frontend" style="shape=ext;rounded=1;html=1;whiteSpace=wrap;" parent="1" vertex="1">
          <mxGeometry x="370" y="155" width="110" height="50" as="geometry" />
        </mxCell>
        <mxCell id="YVzgmQ1mdvPR-3ZGhLIe-10" value="- Regras para as páginas;&lt;br&gt;- Payload customizado por página;&lt;br&gt;- Isolamento de comportamento" style="text;html=1;strokeColor=none;fillColor=none;align=left;verticalAlign=middle;whiteSpace=wrap;rounded=0;" parent="1" vertex="1">
          <mxGeometry x="329" y="210" width="190" height="40" as="geometry" />
        </mxCell>
        <mxCell id="YVzgmQ1mdvPR-3ZGhLIe-35" style="rounded=0;orthogonalLoop=1;jettySize=auto;html=1;exitX=1;exitY=0.5;exitDx=0;exitDy=0;entryX=0;entryY=0.75;entryDx=0;entryDy=0;fillColor=#ffffff;" parent="1" source="YVzgmQ1mdvPR-3ZGhLIe-11" target="YVzgmQ1mdvPR-3ZGhLIe-31" edge="1">
          <mxGeometry relative="1" as="geometry" />
        </mxCell>
        <mxCell id="YVzgmQ1mdvPR-3ZGhLIe-11" value="BFF Mobile - Backend For Frontend&amp;nbsp;&lt;br&gt;" style="shape=ext;rounded=1;html=1;whiteSpace=wrap;" parent="1" vertex="1">
          <mxGeometry x="370" y="330" width="110" height="50" as="geometry" />
        </mxCell>
        <mxCell id="YVzgmQ1mdvPR-3ZGhLIe-12" value="- Regras para as páginas;&lt;br&gt;- Payload customizado por página;&lt;br&gt;- Isolamento de comportamento" style="text;html=1;strokeColor=none;fillColor=none;align=left;verticalAlign=middle;whiteSpace=wrap;rounded=0;" parent="1" vertex="1">
          <mxGeometry x="329" y="385" width="190" height="40" as="geometry" />
        </mxCell>
        <mxCell id="YVzgmQ1mdvPR-3ZGhLIe-13" value="Se iOS e Android possuírem regras muito diferentes, pode haver um BFF para cada, mas de preferência devemos deixar um sistema único" style="text;html=1;strokeColor=none;fillColor=none;align=center;verticalAlign=middle;whiteSpace=wrap;rounded=0;labelBackgroundColor=#E6E6E6;fontStyle=2" parent="1" vertex="1">
          <mxGeometry x="339" y="440" width="170" height="80" as="geometry" />
        </mxCell>
        <mxCell id="YVzgmQ1mdvPR-3ZGhLIe-14" value="" style="shape=link;html=1;width=24;" parent="1" edge="1">
          <mxGeometry width="50" height="50" relative="1" as="geometry">
            <mxPoint x="230" y="455.5" as="sourcePoint" />
            <mxPoint x="229.5" y="105.5" as="targetPoint" />
          </mxGeometry>
        </mxCell>
        <mxCell id="YVzgmQ1mdvPR-3ZGhLIe-17" value="Database" style="shape=cylinder;whiteSpace=wrap;html=1;boundedLbl=1;backgroundOutline=1;labelBackgroundColor=none;labelPosition=center;verticalLabelPosition=bottom;align=center;verticalAlign=top;" parent="1" vertex="1">
          <mxGeometry x="935" y="400" width="60" height="80" as="geometry" />
        </mxCell>
        <mxCell id="YVzgmQ1mdvPR-3ZGhLIe-22" style="edgeStyle=orthogonalEdgeStyle;rounded=0;orthogonalLoop=1;jettySize=auto;html=1;entryX=0;entryY=0.5;entryDx=0;entryDy=0;" parent="1" source="YVzgmQ1mdvPR-3ZGhLIe-7" target="YVzgmQ1mdvPR-3ZGhLIe-9" edge="1">
          <mxGeometry relative="1" as="geometry">
            <mxPoint x="120" y="180" as="sourcePoint" />
            <mxPoint x="360" y="180" as="targetPoint" />
          </mxGeometry>
        </mxCell>
        <mxCell id="YVzgmQ1mdvPR-3ZGhLIe-34" value="" style="endArrow=classic;html=1;fillColor=#ffffff;exitX=1;exitY=0.5;exitDx=0;exitDy=0;entryX=0;entryY=0.25;entryDx=0;entryDy=0;rounded=0;" parent="1" source="YVzgmQ1mdvPR-3ZGhLIe-9" target="YVzgmQ1mdvPR-3ZGhLIe-31" edge="1">
          <mxGeometry width="50" height="50" relative="1" as="geometry">
            <mxPoint x="730" y="10" as="sourcePoint" />
            <mxPoint x="780" y="-40" as="targetPoint" />
          </mxGeometry>
        </mxCell>
        <mxCell id="YVzgmQ1mdvPR-3ZGhLIe-36" value="- Serviços especializaos para cada subdomínio;&lt;br&gt;- Cada serviço deve ter sua base de dados com os dados estruturados para melhora de performance;&lt;br&gt;- Cada serviço deve focar o máximo possível em possuir regras gerais, independente da origem da requisição;" style="text;html=1;strokeColor=none;fillColor=none;align=left;verticalAlign=middle;whiteSpace=wrap;rounded=0;labelBackgroundColor=none;" parent="1" vertex="1">
          <mxGeometry x="580" y="360" width="303" height="80" as="geometry" />
        </mxCell>
        <mxCell id="YVzgmQ1mdvPR-3ZGhLIe-40" value="" style="shape=image;verticalLabelPosition=bottom;verticalAlign=top;imageAspect=0;image=https://3.bp.blogspot.com/-qO5a1oZPOIE/WW4JHCfttKI/AAAAAAAAJ_o/BiWEbkoQu9M3UaYGGe29IyLQcomUCKihACLcBGAs/s1600/NoSQL.jpg;labelBackgroundColor=none;fillColor=none;align=left;" parent="1" vertex="1">
          <mxGeometry x="580" y="450" width="200" height="71" as="geometry" />
        </mxCell>
        <mxCell id="YVzgmQ1mdvPR-3ZGhLIe-42" value="" style="shape=cylinder;whiteSpace=wrap;html=1;boundedLbl=1;backgroundOutline=1;labelBackgroundColor=none;fillColor=#FFFF99;align=left;strokeColor=#6c8ebf;opacity=80;" parent="1" vertex="1">
          <mxGeometry x="580" y="480" width="50" height="60" as="geometry" />
        </mxCell>
        <mxCell id="YVzgmQ1mdvPR-3ZGhLIe-43" value="" style="shape=cylinder;whiteSpace=wrap;html=1;boundedLbl=1;backgroundOutline=1;labelBackgroundColor=none;fillColor=#FFFF99;align=left;strokeColor=#6c8ebf;opacity=80;" parent="1" vertex="1">
          <mxGeometry x="650" y="440" width="50" height="60" as="geometry" />
        </mxCell>
        <mxCell id="YVzgmQ1mdvPR-3ZGhLIe-44" value="" style="shape=cylinder;whiteSpace=wrap;html=1;boundedLbl=1;backgroundOutline=1;labelBackgroundColor=none;fillColor=#FFFF99;align=left;strokeColor=#6c8ebf;opacity=80;" parent="1" vertex="1">
          <mxGeometry x="720" y="480" width="50" height="60" as="geometry" />
        </mxCell>
        <mxCell id="YVzgmQ1mdvPR-3ZGhLIe-45" value="- Bases NoSQL com o dado de cada subdomínio estruturado da forma mais performática para o problema." style="text;html=1;strokeColor=none;fillColor=none;align=center;verticalAlign=middle;whiteSpace=wrap;rounded=0;labelBackgroundColor=none;opacity=80;" parent="1" vertex="1">
          <mxGeometry x="573" y="540" width="310" height="35" as="geometry" />
        </mxCell>
        <mxCell id="YVzgmQ1mdvPR-3ZGhLIe-46" value="Database principal com os dados centralizados e consolidados&amp;nbsp;" style="text;html=1;strokeColor=none;fillColor=none;align=left;verticalAlign=middle;whiteSpace=wrap;rounded=0;labelBackgroundColor=none;opacity=80;" parent="1" vertex="1">
          <mxGeometry x="1010" y="440" width="120" height="50" as="geometry" />
        </mxCell>
        <mxCell id="YVzgmQ1mdvPR-3ZGhLIe-25" value="Service A" style="shape=hexagon;perimeter=hexagonPerimeter2;whiteSpace=wrap;html=1;labelBackgroundColor=none;fillColor=#ffffff;labelPosition=center;verticalLabelPosition=bottom;align=center;verticalAlign=top;" parent="1" vertex="1">
          <mxGeometry x="640" y="190" width="70" height="50" as="geometry" />
        </mxCell>
        <mxCell id="YVzgmQ1mdvPR-3ZGhLIe-26" value="Service B" style="shape=hexagon;perimeter=hexagonPerimeter2;whiteSpace=wrap;html=1;labelBackgroundColor=none;fillColor=#ffffff;labelPosition=center;verticalLabelPosition=bottom;align=center;verticalAlign=top;" parent="1" vertex="1">
          <mxGeometry x="640" y="270" width="70" height="50" as="geometry" />
        </mxCell>
        <mxCell id="YVzgmQ1mdvPR-3ZGhLIe-27" value="Service C" style="shape=hexagon;perimeter=hexagonPerimeter2;whiteSpace=wrap;html=1;labelBackgroundColor=none;fillColor=#ffffff;labelPosition=center;verticalLabelPosition=bottom;align=center;verticalAlign=top;" parent="1" vertex="1">
          <mxGeometry x="700" y="240" width="70" height="50" as="geometry" />
        </mxCell>
        <mxCell id="YVzgmQ1mdvPR-3ZGhLIe-28" value="Service X" style="shape=hexagon;perimeter=hexagonPerimeter2;whiteSpace=wrap;html=1;labelBackgroundColor=none;fillColor=#ffffff;labelPosition=center;verticalLabelPosition=bottom;align=center;verticalAlign=top;" parent="1" vertex="1">
          <mxGeometry x="700" y="160" width="70" height="50" as="geometry" />
        </mxCell>
        <mxCell id="YVzgmQ1mdvPR-3ZGhLIe-49" style="edgeStyle=none;rounded=0;orthogonalLoop=1;jettySize=auto;html=1;exitX=1;exitY=0.5;exitDx=0;exitDy=0;entryX=0;entryY=0.5;entryDx=0;entryDy=0;fillColor=#ffffff;" parent="1" source="YVzgmQ1mdvPR-3ZGhLIe-31" target="YVzgmQ1mdvPR-3ZGhLIe-47" edge="1">
          <mxGeometry relative="1" as="geometry" />
        </mxCell>
        <mxCell id="0WrMS-xFPGMkS_MWdP8U-6" style="edgeStyle=none;rounded=0;orthogonalLoop=1;jettySize=auto;html=1;exitX=1;exitY=0.25;exitDx=0;exitDy=0;fillColor=#ffffff;" parent="1" source="YVzgmQ1mdvPR-3ZGhLIe-31" target="0WrMS-xFPGMkS_MWdP8U-5" edge="1">
          <mxGeometry relative="1" as="geometry" />
        </mxCell>
        <mxCell id="YVzgmQ1mdvPR-3ZGhLIe-31" value="" style="rounded=0;whiteSpace=wrap;html=1;labelBackgroundColor=none;fillColor=none;" parent="1" vertex="1">
          <mxGeometry x="630" y="155" width="150" height="195" as="geometry" />
        </mxCell>
        <mxCell id="YVzgmQ1mdvPR-3ZGhLIe-48" style="edgeStyle=none;rounded=0;orthogonalLoop=1;jettySize=auto;html=1;exitX=0.5;exitY=1;exitDx=0;exitDy=0;fillColor=#ffffff;" parent="1" source="YVzgmQ1mdvPR-3ZGhLIe-47" target="YVzgmQ1mdvPR-3ZGhLIe-17" edge="1">
          <mxGeometry relative="1" as="geometry" />
        </mxCell>
        <mxCell id="YVzgmQ1mdvPR-3ZGhLIe-47" value="API" style="shape=hexagon;perimeter=hexagonPerimeter2;whiteSpace=wrap;html=1;labelBackgroundColor=none;fillColor=#FFFFFF;opacity=80;align=center;labelPosition=center;verticalLabelPosition=bottom;verticalAlign=top;" parent="1" vertex="1">
          <mxGeometry x="930" y="290" width="70" height="50" as="geometry" />
        </mxCell>
        <mxCell id="YVzgmQ1mdvPR-3ZGhLIe-50" value="- Serviço(s) com o padrão Database per service;&lt;br&gt;- Garante isolamento entre domínio e a estrutura interna do banco;&lt;br&gt;- Permite evolução do banco de forma menos impactante para os sistemas" style="text;html=1;strokeColor=none;fillColor=none;align=left;verticalAlign=middle;whiteSpace=wrap;rounded=0;labelBackgroundColor=none;opacity=80;" parent="1" vertex="1">
          <mxGeometry x="1000" y="250" width="150" height="170" as="geometry" />
        </mxCell>
        <mxCell id="YVzgmQ1mdvPR-3ZGhLIe-62" style="edgeStyle=none;rounded=0;orthogonalLoop=1;jettySize=auto;html=1;exitX=1;exitY=0.5;exitDx=0;exitDy=0;entryX=0.5;entryY=0;entryDx=0;entryDy=0;fillColor=#ffffff;" parent="1" source="YVzgmQ1mdvPR-3ZGhLIe-59" target="YVzgmQ1mdvPR-3ZGhLIe-47" edge="1">
          <mxGeometry relative="1" as="geometry" />
        </mxCell>
        <mxCell id="YVzgmQ1mdvPR-3ZGhLIe-59" value="" style="shape=datastore;whiteSpace=wrap;html=1;labelBackgroundColor=none;strokeColor=#000000;fillColor=#ffffff;gradientColor=none;align=left;rotation=90;labelPosition=right;verticalLabelPosition=middle;verticalAlign=middle;horizontal=0;textDirection=ltr;" parent="1" vertex="1">
          <mxGeometry x="1030" y="96.25" width="50" height="167.5" as="geometry" />
        </mxCell>
        <mxCell id="YVzgmQ1mdvPR-3ZGhLIe-61" value="Message Queue" style="text;html=1;strokeColor=none;fillColor=none;align=center;verticalAlign=middle;whiteSpace=wrap;rounded=0;labelBackgroundColor=none;" parent="1" vertex="1">
          <mxGeometry x="995" y="130" width="115" height="20" as="geometry" />
        </mxCell>
        <mxCell id="YVzgmQ1mdvPR-3ZGhLIe-64" value="Opcionalmente pode ser usado mensageria para algumas operações&amp;nbsp;" style="text;html=1;strokeColor=none;fillColor=none;align=left;verticalAlign=middle;whiteSpace=wrap;rounded=0;labelBackgroundColor=none;" parent="1" vertex="1">
          <mxGeometry x="1150" y="165" width="149" height="40" as="geometry" />
        </mxCell>
        <mxCell id="0WrMS-xFPGMkS_MWdP8U-5" value="Armazenamento &lt;br&gt;de imagens" style="outlineConnect=0;fontColor=#232F3E;gradientColor=none;strokeColor=#232F3E;fillColor=#ffffff;dashed=0;verticalLabelPosition=bottom;verticalAlign=top;align=center;html=1;fontSize=12;fontStyle=0;aspect=fixed;shape=mxgraph.aws4.resourceIcon;resIcon=mxgraph.aws4.bucket_with_objects;labelBackgroundColor=none;" parent="1" vertex="1">
          <mxGeometry x="840" y="130" width="70" height="70" as="geometry" />
        </mxCell>
        <mxCell id="0WrMS-xFPGMkS_MWdP8U-8" value="- Armazenamento dos arquivos de imagem deve ser feito em um storage de alta capacidade;&lt;br&gt;- Por se tratar de documentos de usuários, o bucket deve ser criptografado;&lt;br&gt;- Os arquivos de cada usuário devem possuir uma chave única ligada com o registro no banco de dados, permitindo o rastreio de informações para obrigações legais" style="text;html=1;strokeColor=none;fillColor=none;align=left;verticalAlign=middle;whiteSpace=wrap;rounded=0;labelBackgroundColor=none;" parent="1" vertex="1">
          <mxGeometry x="760" y="-5.5" width="280" height="110" as="geometry" />
        </mxCell>
      </root>
    </mxGraphModel>
  </diagram>
</mxfile>
